<?xml version="1.0" encoding="UTF-8"?>
<svg id="Camada_2" data-name="Camada 2" xmlns="http://www.w3.org/2000/svg" viewBox="0 0 1430.48 755.26">
  <defs>
    <style>
      .cls-1 {
        fill: #a88854;
      }

      .cls-2 {
        fill: #383838;
      }
    </style>
  </defs>
  <g id="Camada_1-2" data-name="Camada 1">
    <g>
      <g>
        <path class="cls-2" d="M38.94,505.8v75.51l65.48-64.95c14.39-14.31,12.65-31.7-2.48-31.7l.25-1.76h43.16l-106.41,104.57v24.66c0,14.09,5.95,23.78,15.13,23.78h.74v1.1H0v-1.1h.74c9.18,0,15.13-9.69,15.13-23.78v-106.33c-.74-12.99-6.45-21.79-15.13-21.79h-.74v-1.1h54.82v1.1h-.74c-8.68,0-14.63,8.81-15.13,21.79ZM61.02,568.98c5.95-4.62,13.15-9.25,19.1-9.47,32-.88,55.81,63.84,73.67,63.84,3.97,0,8.19-1.98,12.15-5.94l.99.88-19.6,18.71c-37.21,0-53.08-68.03-86.32-68.03Z"/>
        <path class="cls-2" d="M225.97,635.91v1.1h-54.82v-1.1h.74c8.68,0,14.39-8.59,15.13-21.58v-106.55c0-14.09-5.95-23.78-15.13-23.78h-.74v-1.1h54.82v1.1h-.74c-9.18,0-15.13,9.69-15.13,23.78v104.35c0,14.09,5.95,23.78,15.13,23.78h.74Z"/>
        <path class="cls-2" d="M397.12,614.33v-119.54l-62.26,122.19h-7.44l-77.14-119.76v92.25c0,21.13,15.63,45.35,36.71,45.35v2.2h-42.17v-129.23c0-14.09-5.95-23.78-15.13-23.78h-.74v-1.1h38.2l72.18,112.94,57.79-112.5v-.44h38.94v1.1h-.5c-9.18,0-15.38,9.69-15.38,23.78v106.55c.5,12.99,6.7,21.58,15.38,21.58h.5v1.1h-54.82v-1.1h.74c8.68,0,14.39-8.59,15.13-21.58Z"/>
        <path class="cls-2" d="M488.65,637.01h-47.87l77.39-139.8-5.21-12.11v-2.2h23.56l65.24,143.32c2.48,5.06,8.43,8.59,14.88,8.59v2.2h-55.81v-2.2h.99c8.93,0,13.15-4.62,10.91-11.67l-15.63-36.1h-73.42v-4.84h71.44l-34.48-79.25-47.87,87.4c-8.93,16.29-7.44,44.47,15.88,44.47v2.2Z"/>
        <path class="cls-2" d="M734.46,505.8v75.51l65.48-64.95c14.39-14.31,12.65-31.7-2.48-31.7l.25-1.76h43.16l-106.41,104.57v24.66c0,14.09,5.95,23.78,15.13,23.78h.74v1.1h-54.82v-1.1h.74c9.18,0,15.13-9.69,15.13-23.78v-106.33c-.74-12.99-6.45-21.79-15.13-21.79h-.74v-1.1h54.82v1.1h-.74c-8.68,0-14.63,8.81-15.13,21.79ZM756.54,568.98c5.95-4.62,13.15-9.25,19.1-9.47,32-.88,55.81,63.84,73.67,63.84,3.97,0,8.19-1.98,12.15-5.94l.99.88-19.6,18.71c-37.21,0-53.08-68.03-86.32-68.03Z"/>
        <path class="cls-2" d="M962.42,482.9h38.94l-58.04,95.77v33.46c0,14.09,6.2,23.78,15.13,23.78h.74v1.1h-54.82v-1.1h.74c9.18,0,15.13-9.69,15.13-23.78v-33.46l-49.11-84.76c-2.98-5.28-9.67-8.81-16.37-8.81h-.5v-2.2h51.59v2.2h-1.24c-7.44,0-10.17,3.74-6.95,9.69l43.16,79.26,21.33-36.33c9.18-15.63,26.29-46.45.5-52.62l-.25-2.2Z"/>
        <path class="cls-2" d="M1033.11,637.01h-47.87l77.39-139.8-5.21-12.11v-2.2h23.56l65.24,143.32c2.48,5.06,8.43,8.59,14.88,8.59v2.2h-55.81v-2.2h.99c8.93,0,13.15-4.62,10.91-11.67l-15.63-36.1h-73.42v-4.84h71.44l-34.48-79.25-47.87,87.4c-8.93,16.29-7.44,44.47,15.88,44.47v2.2Z"/>
        <path class="cls-2" d="M1333,614.33v-119.54l-62.26,122.19h-7.44l-77.14-119.76v92.25c0,21.13,15.63,45.35,36.71,45.35v2.2h-42.17v-129.23c0-14.09-5.95-23.78-15.13-23.78h-.74v-1.1h38.2l72.18,112.94,57.79-112.5v-.44h38.94v1.1h-.5c-9.18,0-15.38,9.69-15.38,23.78v106.55c.5,12.99,6.7,21.58,15.38,21.58h.5v1.1h-54.82v-1.1h.74c8.68,0,14.39-8.59,15.13-21.58Z"/>
        <path class="cls-2" d="M1430.48,635.91v1.1h-54.82v-1.1h.74c8.68,0,14.39-8.59,15.13-21.58v-106.55c0-14.09-5.95-23.78-15.13-23.78h-.74v-1.1h54.82v1.1h-.74c-9.18,0-15.13,9.69-15.13,23.78v104.35c0,14.09,5.95,23.78,15.13,23.78h.74Z"/>
      </g>
      <g>
        <path class="cls-2" d="M145.21,748.14v6.52h-38.1v-52.5h37.05v6.53h-29.55v16.12h26.32v6.38h-26.32v16.95h30.6Z"/>
        <path class="cls-2" d="M162.61,702.16h7.5v45.97h28.42v6.52h-35.92v-52.5Z"/>
        <path class="cls-2" d="M250.51,748.14v6.52h-38.1v-52.5h37.05v6.53h-29.55v16.12h26.32v6.38h-26.32v16.95h30.6Z"/>
        <path class="cls-2" d="M304.06,728.11h7.2v20.47c-5.25,4.42-12.52,6.67-19.87,6.67-16.12,0-27.97-11.32-27.97-26.85s11.85-26.85,28.12-26.85c8.32,0,15.37,2.77,20.17,8.1l-4.65,4.65c-4.35-4.2-9.3-6.07-15.22-6.07-12.15,0-20.92,8.47-20.92,20.17s8.77,20.17,20.85,20.17c4.42,0,8.55-.97,12.3-3.37v-17.1Z"/>
        <path class="cls-2" d="M364.28,741.54h-27.9l-5.77,13.12h-7.73l23.77-52.5h7.42l23.85,52.5h-7.87l-5.77-13.12ZM343.51,697.89h-6.52l9.97-9.75h6.9l9.97,9.75h-6.52l-6.9-5.78-6.9,5.78ZM361.66,735.54l-11.32-25.72-11.32,25.72h22.65Z"/>
        <path class="cls-2" d="M436.13,702.16v52.5h-6.15l-31.5-39.15v39.15h-7.5v-52.5h6.15l31.5,39.15v-39.15h7.5Z"/>
        <path class="cls-2" d="M452.86,728.41c0-15.52,11.85-26.85,27.82-26.85,8.1,0,15.15,2.77,19.95,8.17l-4.88,4.72c-4.05-4.28-9-6.22-14.77-6.22-11.85,0-20.62,8.55-20.62,20.17s8.77,20.17,20.62,20.17c5.77,0,10.72-2.02,14.77-6.3l4.88,4.72c-4.8,5.4-11.85,8.25-20.02,8.25-15.9,0-27.75-11.32-27.75-26.85Z"/>
        <path class="cls-2" d="M516.61,702.16h7.5v52.5h-7.5v-52.5Z"/>
        <path class="cls-2" d="M578.55,741.54h-27.9l-5.77,13.12h-7.73l23.77-52.5h7.42l23.85,52.5h-7.87l-5.77-13.12ZM575.93,735.54l-11.32-25.72-11.32,25.72h22.65Z"/>
        <path class="cls-2" d="M668.78,748.14v6.52h-38.1v-52.5h37.05v6.53h-29.55v16.12h26.32v6.38h-26.32v16.95h30.6Z"/>
        <path class="cls-2" d="M734.85,754.66l-.08-38.25-18.97,31.87h-3.45l-18.97-31.65v38.02h-7.2v-52.5h6.15l21.9,36.9,21.6-36.9h6.15l.08,52.5h-7.2Z"/>
        <path class="cls-2" d="M784.2,728.41c0-15.52,11.85-26.85,27.82-26.85,8.1,0,15.15,2.77,19.95,8.17l-4.88,4.72c-4.05-4.28-9-6.22-14.77-6.22-11.85,0-20.62,8.55-20.62,20.17s8.77,20.17,20.62,20.17c5.77,0,10.72-2.02,14.77-6.3l4.88,4.72c-4.8,5.4-11.85,8.25-20.02,8.25-15.9,0-27.75-11.32-27.75-26.85Z"/>
        <path class="cls-2" d="M880.13,741.54h-27.9l-5.77,13.12h-7.73l23.77-52.5h7.42l23.85,52.5h-7.87l-5.77-13.12ZM877.5,735.54l-11.32-25.72-11.32,25.72h22.65Z"/>
        <path class="cls-2" d="M906.83,702.16h22.12c16.87,0,28.35,10.65,28.35,26.25s-11.47,26.25-28.35,26.25h-22.12v-52.5ZM928.5,748.14c12.97,0,21.3-7.95,21.3-19.72s-8.32-19.72-21.3-19.72h-14.17v39.45h14.17Z"/>
        <path class="cls-2" d="M1006.73,741.54h-27.9l-5.77,13.12h-7.73l23.77-52.5h7.42l23.85,52.5h-7.87l-5.77-13.12ZM1004.1,735.54l-11.32-25.72-11.32,25.72h22.65Z"/>
        <path class="cls-2" d="M1101.23,720.46c0,11.4-8.25,18.3-21.9,18.3h-12.97v15.9h-7.5v-52.5h20.47c13.65,0,21.9,6.9,21.9,18.3ZM1093.73,720.46c0-7.5-5.02-11.77-14.62-11.77h-12.75v23.55h12.75c9.6,0,14.62-4.28,14.62-11.77Z"/>
        <path class="cls-2" d="M1148.32,741.54h-27.9l-5.77,13.12h-7.73l23.77-52.5h7.42l23.85,52.5h-7.87l-5.77-13.12ZM1145.7,735.54l-11.32-25.72-11.32,25.72h22.65Z"/>
        <path class="cls-2" d="M1170.23,748.66l2.77-5.85c3.9,3.53,10.57,6.08,17.32,6.08,9.07,0,12.97-3.53,12.97-8.1,0-12.83-31.8-4.73-31.8-24.22,0-8.1,6.3-15,20.1-15,6.15,0,12.52,1.65,16.87,4.65l-2.47,6c-4.58-2.92-9.75-4.27-14.4-4.27-8.92,0-12.75,3.75-12.75,8.32,0,12.82,31.8,4.8,31.8,24.07,0,8.02-6.45,14.92-20.32,14.92-8.02,0-15.9-2.7-20.1-6.6Z"/>
        <path class="cls-2" d="M1222.05,748.66l2.77-5.85c3.9,3.53,10.57,6.08,17.32,6.08,9.07,0,12.97-3.53,12.97-8.1,0-12.83-31.8-4.73-31.8-24.22,0-8.1,6.3-15,20.1-15,6.15,0,12.52,1.65,16.87,4.65l-2.47,6c-4.58-2.92-9.75-4.27-14.4-4.27-8.92,0-12.75,3.75-12.75,8.32,0,12.82,31.8,4.8,31.8,24.07,0,8.02-6.45,14.92-20.32,14.92-8.02,0-15.9-2.7-20.1-6.6Z"/>
        <path class="cls-2" d="M1274.4,728.41c0-15.37,11.85-26.85,27.97-26.85s27.82,11.4,27.82,26.85-11.85,26.85-27.82,26.85-27.97-11.47-27.97-26.85ZM1322.7,728.41c0-11.62-8.7-20.17-20.32-20.17s-20.47,8.55-20.47,20.17,8.7,20.17,20.47,20.17,20.32-8.55,20.32-20.17Z"/>
      </g>
      <g>
        <path class="cls-1" d="M554.2,173.53l-2.93,8.16v37.5l2.93,8.18,2.93-8.21v-37.44l-2.93-8.19ZM858.5,181.72v37.44l2.93,8.21,2.93-8.21v-37.44l-2.93-8.19-2.93,8.19ZM707.81,0c-86.33,0-156.54,70.22-156.54,156.54v7.92h5.85v-7.92c0-83.09,67.6-150.69,150.69-150.69s150.69,67.6,150.69,150.69v7.92h5.85v-7.92C864.35,70.22,794.12,0,707.81,0ZM858.5,231.76v13.55c0,41.54-16.9,79.21-44.19,106.5-27.29,27.29-64.95,44.19-106.5,44.19-83.09,0-150.69-67.6-150.69-150.69v-13.55h-5.85v13.55c0,86.31,70.22,156.54,156.54,156.54s156.54-70.23,156.54-156.54v-13.55h-5.85Z"/>
        <g>
          <path class="cls-1" d="M717.69,256.62v-26.32l84.8-111.64h-34.4l-.19,1.89c12.06,0,13.45,18.57,1.98,33.84l-52.19,69.32v-80.6c.4-13.87,5.15-23.28,12.06-23.28h.6v-1.17h-43.69v1.17h.6c6.92,0,11.46,9.41,12.06,23.28v113.51c0,15.04-4.74,25.39-12.06,25.39h-.6v1.19h43.69v-1.19h-.6c-7.32,0-12.06-10.34-12.06-25.39ZM818.91,262.27c-3.16,4.23-6.53,6.35-9.69,6.35-14.24,0-33.21-69.1-58.72-68.17-4.74.23-10.48,5.18-15.22,10.11,26.48,0,39.14,72.63,68.78,72.63l15.63-19.99-.79-.94Z"/>
          <path class="cls-1" d="M611.54,118.66l-15.61,19.99.79.94c3.16-4.23,6.53-6.35,9.69-6.35,14.24,0,33.21,69.1,58.7,68.17,4.76-.23,10.49-5.18,15.23-10.11-26.5,0-39.14-72.63-68.8-72.63ZM728.37,282.01c-6.92,0-11.47-9.39-12.06-23.26v-113.52l.29-26.56h-31.33v1.18h.59c7.32,0,12.06,10.33,12.06,25.37v26.34l-84.8,111.64h34.4l.19-1.89c-12.06,0-13.43-18.57-1.98-33.84l52.19-69.34v80.62c-.4,13.87-5.14,23.26-12.06,23.26h-.59v1.19h43.67v-1.19h-.59Z"/>
        </g>
        <path class="cls-1" d="M571.64,197.03v6.83c-6.69,2.62-11.91,8.02-14.34,14.81l-.18.5-2.93,8.21-2.93-8.18-.19-.53c-2.22-6.22-6.8-11.27-12.69-14.09v-8.27c5.88-2.82,10.46-7.87,12.69-14.09l.19-.53,2.93-8.16,2.93,8.19.18.5c2.43,6.79,7.65,12.19,14.34,14.81Z"/>
        <path class="cls-1" d="M878.05,196.69v7.51c-6.29,2.74-11.19,7.96-13.52,14.47l-.18.5-2.93,8.21-2.93-8.21-.18-.5c-2.33-6.51-7.24-11.73-13.52-14.47v-7.51c6.28-2.74,11.19-7.96,13.52-14.47l.18-.5,2.93-8.19,2.93,8.19.18.5c2.33,6.51,7.23,11.73,13.52,14.47Z"/>
        <path class="cls-1" d="M581.12,200.45l-8.71,3.1c-.26.09-.53.19-.78.31-6.69,2.62-11.91,8.02-14.34,14.81l-.18.5-2.93,8.21-2.93-8.18-.19-.53c-2.22-6.22-6.8-11.27-12.69-14.09-.79-.4-1.59-.73-2.43-1.02l-8.69-3.1,8.69-3.12c.83-.29,1.64-.63,2.43-1.02,5.88-2.82,10.46-7.87,12.69-14.09l.19-.53,2.93-8.16,2.93,8.19.18.5c2.43,6.79,7.65,12.19,14.34,14.81.25.12.51.22.78.31l8.71,3.12Z"/>
        <path class="cls-1" d="M888.35,200.45l-8.71,3.1c-.54.19-1.07.41-1.59.64-6.29,2.74-11.19,7.96-13.52,14.47l-.18.5-2.93,8.21-2.93-8.21-.18-.5c-2.33-6.51-7.24-11.73-13.52-14.47-.53-.23-1.05-.45-1.59-.64l-8.71-3.1,8.71-3.12c.54-.19,1.07-.41,1.59-.64,6.28-2.74,11.19-7.96,13.52-14.47l.18-.5,2.93-8.19,2.93,8.19.18.5c2.33,6.51,7.23,11.73,13.52,14.47.53.23,1.05.45,1.59.64l8.71,3.12Z"/>
      </g>
      <circle class="cls-2" cx="1353.21" cy="733.19" r="7.12"/>
      <circle class="cls-2" cx="63.52" cy="733.19" r="7.12"/>
    </g>
  </g>
</svg>