<?xml version="1.0" encoding="UTF-8"?>
<svg id="Camada_2" data-name="Camada 2" xmlns="http://www.w3.org/2000/svg" viewBox="0 0 1430.48 637.01">
  <defs>
    <style>
      .cls-1 {
        fill: #fff;
      }

      .cls-2 {
        fill: #e2ceaa;
      }
    </style>
  </defs>
  <g id="Camada_1-2" data-name="Camada 1">
    <g>
      <g>
        <path class="cls-1" d="M38.94,505.8v75.51l65.48-64.95c14.39-14.31,12.65-31.7-2.48-31.7l.25-1.76h43.16l-106.41,104.57v24.66c0,14.09,5.95,23.78,15.13,23.78h.74v1.1H0v-1.1h.74c9.18,0,15.13-9.69,15.13-23.78v-106.33c-.74-12.99-6.45-21.79-15.13-21.79h-.74v-1.1h54.82v1.1h-.74c-8.68,0-14.63,8.81-15.13,21.79ZM61.02,568.98c5.95-4.62,13.15-9.25,19.1-9.47,32-.88,55.81,63.84,73.67,63.84,3.97,0,8.19-1.98,12.15-5.94l.99.88-19.6,18.71c-37.21,0-53.08-68.03-86.32-68.03Z"/>
        <path class="cls-1" d="M225.97,635.91v1.1h-54.82v-1.1h.74c8.68,0,14.39-8.59,15.13-21.58v-106.55c0-14.09-5.95-23.78-15.13-23.78h-.74v-1.1h54.82v1.1h-.74c-9.18,0-15.13,9.69-15.13,23.78v104.35c0,14.09,5.95,23.78,15.13,23.78h.74Z"/>
        <path class="cls-1" d="M397.12,614.33v-119.54l-62.26,122.19h-7.44l-77.14-119.76v92.25c0,21.13,15.63,45.35,36.71,45.35v2.2h-42.17v-129.23c0-14.09-5.95-23.78-15.13-23.78h-.74v-1.1h38.2l72.18,112.94,57.79-112.5v-.44h38.94v1.1h-.5c-9.18,0-15.38,9.69-15.38,23.78v106.55c.5,12.99,6.7,21.58,15.38,21.58h.5v1.1h-54.82v-1.1h.74c8.68,0,14.39-8.59,15.13-21.58Z"/>
        <path class="cls-1" d="M488.65,637.01h-47.87l77.39-139.8-5.21-12.11v-2.2h23.56l65.24,143.32c2.48,5.06,8.43,8.59,14.88,8.59v2.2h-55.81v-2.2h.99c8.93,0,13.15-4.62,10.91-11.67l-15.63-36.1h-73.42v-4.84h71.44l-34.48-79.25-47.87,87.4c-8.93,16.29-7.44,44.47,15.88,44.47v2.2Z"/>
        <path class="cls-1" d="M734.46,505.8v75.51l65.48-64.95c14.39-14.31,12.65-31.7-2.48-31.7l.25-1.76h43.16l-106.41,104.57v24.66c0,14.09,5.95,23.78,15.13,23.78h.74v1.1h-54.82v-1.1h.74c9.18,0,15.13-9.69,15.13-23.78v-106.33c-.74-12.99-6.45-21.79-15.13-21.79h-.74v-1.1h54.82v1.1h-.74c-8.68,0-14.63,8.81-15.13,21.79ZM756.54,568.98c5.95-4.62,13.15-9.25,19.1-9.47,32-.88,55.81,63.84,73.67,63.84,3.97,0,8.19-1.98,12.15-5.94l.99.88-19.6,18.71c-37.21,0-53.08-68.03-86.32-68.03Z"/>
        <path class="cls-1" d="M962.42,482.9h38.94l-58.04,95.77v33.46c0,14.09,6.2,23.78,15.13,23.78h.74v1.1h-54.82v-1.1h.74c9.18,0,15.13-9.69,15.13-23.78v-33.46l-49.11-84.76c-2.98-5.28-9.67-8.81-16.37-8.81h-.5v-2.2h51.59v2.2h-1.24c-7.44,0-10.17,3.74-6.95,9.69l43.16,79.26,21.33-36.33c9.18-15.63,26.29-46.45.5-52.62l-.25-2.2Z"/>
        <path class="cls-1" d="M1033.11,637.01h-47.87l77.39-139.8-5.21-12.11v-2.2h23.56l65.24,143.32c2.48,5.06,8.43,8.59,14.88,8.59v2.2h-55.81v-2.2h.99c8.93,0,13.15-4.62,10.91-11.67l-15.63-36.1h-73.42v-4.84h71.44l-34.48-79.25-47.87,87.4c-8.93,16.29-7.44,44.47,15.88,44.47v2.2Z"/>
        <path class="cls-1" d="M1333,614.33v-119.54l-62.26,122.19h-7.44l-77.14-119.76v92.25c0,21.13,15.63,45.35,36.71,45.35v2.2h-42.17v-129.23c0-14.09-5.95-23.78-15.13-23.78h-.74v-1.1h38.2l72.18,112.94,57.79-112.5v-.44h38.94v1.1h-.5c-9.18,0-15.38,9.69-15.38,23.78v106.55c.5,12.99,6.7,21.58,15.38,21.58h.5v1.1h-54.82v-1.1h.74c8.68,0,14.39-8.59,15.13-21.58Z"/>
        <path class="cls-1" d="M1430.48,635.91v1.1h-54.82v-1.1h.74c8.68,0,14.39-8.59,15.13-21.58v-106.55c0-14.09-5.95-23.78-15.13-23.78h-.74v-1.1h54.82v1.1h-.74c-9.18,0-15.13,9.69-15.13,23.78v104.35c0,14.09,5.95,23.78,15.13,23.78h.74Z"/>
      </g>
      <g>
        <path class="cls-2" d="M554.2,173.53l-2.93,8.16v37.5l2.93,8.18,2.93-8.21v-37.44l-2.93-8.19ZM858.5,181.72v37.44l2.93,8.21,2.93-8.21v-37.44l-2.93-8.19-2.93,8.19ZM707.81,0c-86.33,0-156.54,70.22-156.54,156.54v7.92h5.85v-7.92c0-83.09,67.6-150.69,150.69-150.69s150.69,67.6,150.69,150.69v7.92h5.85v-7.92C864.35,70.22,794.12,0,707.81,0ZM858.5,231.76v13.55c0,41.54-16.9,79.21-44.19,106.5-27.29,27.29-64.95,44.19-106.5,44.19-83.09,0-150.69-67.6-150.69-150.69v-13.55h-5.85v13.55c0,86.31,70.22,156.54,156.54,156.54s156.54-70.23,156.54-156.54v-13.55h-5.85Z"/>
        <g>
          <path class="cls-2" d="M717.69,256.62v-26.32l84.8-111.64h-34.4l-.19,1.89c12.06,0,13.45,18.57,1.98,33.84l-52.19,69.32v-80.6c.4-13.87,5.15-23.28,12.06-23.28h.6v-1.17h-43.69v1.17h.6c6.92,0,11.46,9.41,12.06,23.28v113.51c0,15.04-4.74,25.39-12.06,25.39h-.6v1.19h43.69v-1.19h-.6c-7.32,0-12.06-10.34-12.06-25.39ZM818.91,262.27c-3.16,4.23-6.53,6.35-9.69,6.35-14.24,0-33.21-69.1-58.72-68.17-4.74.23-10.48,5.18-15.22,10.11,26.48,0,39.14,72.63,68.78,72.63l15.63-19.99-.79-.94Z"/>
          <path class="cls-2" d="M611.54,118.66l-15.61,19.99.79.94c3.16-4.23,6.53-6.35,9.69-6.35,14.24,0,33.21,69.1,58.7,68.17,4.76-.23,10.49-5.18,15.23-10.11-26.5,0-39.14-72.63-68.8-72.63ZM728.37,282.01c-6.92,0-11.47-9.39-12.06-23.26v-113.52l.29-26.56h-31.33v1.18h.59c7.32,0,12.06,10.33,12.06,25.37v26.34l-84.8,111.64h34.4l.19-1.89c-12.06,0-13.43-18.57-1.98-33.84l52.19-69.34v80.62c-.4,13.87-5.14,23.26-12.06,23.26h-.59v1.19h43.67v-1.19h-.59Z"/>
        </g>
        <path class="cls-2" d="M571.64,197.03v6.83c-6.69,2.62-11.91,8.02-14.34,14.81l-.18.5-2.93,8.21-2.93-8.18-.19-.53c-2.22-6.22-6.8-11.27-12.69-14.09v-8.27c5.88-2.82,10.46-7.87,12.69-14.09l.19-.53,2.93-8.16,2.93,8.19.18.5c2.43,6.79,7.65,12.19,14.34,14.81Z"/>
        <path class="cls-2" d="M878.05,196.69v7.51c-6.29,2.74-11.19,7.96-13.52,14.47l-.18.5-2.93,8.21-2.93-8.21-.18-.5c-2.33-6.51-7.24-11.73-13.52-14.47v-7.51c6.28-2.74,11.19-7.96,13.52-14.47l.18-.5,2.93-8.19,2.93,8.19.18.5c2.33,6.51,7.23,11.73,13.52,14.47Z"/>
        <path class="cls-2" d="M581.12,200.45l-8.71,3.1c-.26.09-.53.19-.78.31-6.69,2.62-11.91,8.02-14.34,14.81l-.18.5-2.93,8.21-2.93-8.18-.19-.53c-2.22-6.22-6.8-11.27-12.69-14.09-.79-.4-1.59-.73-2.43-1.02l-8.69-3.1,8.69-3.12c.83-.29,1.64-.63,2.43-1.02,5.88-2.82,10.46-7.87,12.69-14.09l.19-.53,2.93-8.16,2.93,8.19.18.5c2.43,6.79,7.65,12.19,14.34,14.81.25.12.51.22.78.31l8.71,3.12Z"/>
        <path class="cls-2" d="M888.35,200.45l-8.71,3.1c-.54.19-1.07.41-1.59.64-6.29,2.74-11.19,7.96-13.52,14.47l-.18.5-2.93,8.21-2.93-8.21-.18-.5c-2.33-6.51-7.24-11.73-13.52-14.47-.53-.23-1.05-.45-1.59-.64l-8.71-3.1,8.71-3.12c.54-.19,1.07-.41,1.59-.64,6.28-2.74,11.19-7.96,13.52-14.47l.18-.5,2.93-8.19,2.93,8.19.18.5c2.33,6.51,7.23,11.73,13.52,14.47.53.23,1.05.45,1.59.64l8.71,3.12Z"/>
      </g>
    </g>
  </g>
</svg>